<svg width="25" height="33" viewBox="0 0 25 33" fill="none" xmlns="http://www.w3.org/2000/svg">
<path d="M15.1542 16.2002C15.1638 17.7781 13.8924 19.0651 12.3145 19.0746C10.7366 19.0842 9.44963 17.8128 9.44006 16.2349C9.43049 14.6569 10.7019 13.37 12.2798 13.3605C13.8578 13.3509 15.1447 14.6223 15.1542 16.2002Z" fill="#212121"/>
<path fill-rule="evenodd" clip-rule="evenodd" d="M12.3699 28.2173C18.4152 28.1807 23.3893 23.6801 24.1858 17.8598L17.1577 17.9024C16.4638 19.9041 14.5675 21.3467 12.3283 21.3603C10.0891 21.3739 8.17552 19.9544 7.45742 17.9612L0.42929 18.0038C1.29636 23.814 6.32465 28.254 12.3699 28.2173ZM7.43663 14.5327L0.4085 14.5753C1.20504 8.75502 6.17912 4.25442 12.2244 4.21776C18.2697 4.18111 23.2979 8.62105 24.165 14.4313L17.1369 14.4739C16.4188 12.4807 14.5052 11.0612 12.266 11.0748C10.0268 11.0884 8.13051 12.531 7.43663 14.5327ZM15.1542 16.2002C15.1638 17.7781 13.8924 19.0651 12.3145 19.0746C10.7366 19.0842 9.44963 17.8128 9.44006 16.2349C9.43049 14.6569 10.7019 13.37 12.2798 13.3605C13.8578 13.3509 15.1447 14.6223 15.1542 16.2002Z" fill="#212121"/>
</svg>
